<svg id="Capa_1" data-name="Capa 1" xmlns="http://www.w3.org/2000/svg" viewBox="0 0 278.86 61.25"><defs><style>.cls-1{fill:#008efd;}.cls-2{fill:#3b3b3b;}.cls-3{fill:#393939;}.cls-4{fill:#0075c2;}</style></defs><title>Mesa de trabajo 19</title><path class="cls-1" d="M104.14,37.82l-1.85,5.07h-9.6l14-35h7.06l13.91,35H118l-1.71-5.07Zm2.46-7.09h7.34l-3.6-12h-.14Z"/><polygon class="cls-2" points="131.54 7.87 140.49 7.87 140.49 35.03 150.85 35.03 150.85 42.89 131.54 42.89 131.54 7.87"/><path class="cls-2" d="M154.35,7.87H165.8c6.49,0,8.9,1,10.8,2.55a11.92,11.92,0,0,1,4.11,9.28c0,3.55-1.46,7.29-3.69,9.18-2.41,2-4.78,3-10.22,3h-3.88v11h-8.57Zm8.57,16.18h3.64c1.71,0,5.59,0,5.59-4.21s-4-4.12-5.92-4.12h-3.31Z"/><polygon class="cls-2" points="184.45 7.87 193.39 7.87 193.39 21.02 204.85 21.02 204.85 7.87 213.79 7.87 213.79 42.89 204.85 42.89 204.85 28.88 193.39 28.88 193.39 42.89 184.45 42.89 184.45 7.87"/><path class="cls-2" d="M228.84,37.82,227,42.89h-9.6l14.05-35h7.05l13.92,35h-9.7L241,37.82Zm2.46-7.09h7.34l-3.6-12h-.14Z"/><path class="cls-2" d="M269.73,18.09c-.19-1.18-.48-3.41-3.22-3.41a2.92,2.92,0,0,0-3.08,2.75c0,2.08.95,2.51,7.24,5.35,6.54,2.93,8.19,6,8.19,10,0,5.11-2.93,10.74-12.21,10.74-10.13,0-12.63-6.62-12.63-11.12V31.29h8.89c0,4.07,2.51,4.78,3.65,4.78a3.37,3.37,0,0,0,3.4-3.36c0-2.31-1.46-2.88-6.86-5.15-2.46-1-8.56-3.46-8.56-10S260.92,7.2,266.79,7.2a12.48,12.48,0,0,1,9.47,4,10.62,10.62,0,0,1,2.32,6.91Z"/><polygon class="cls-2" points="137.97 48.57 137.97 60.41 136.67 60.41 136.67 48.57 133.69 48.57 133.69 47.39 140.95 47.39 140.95 48.57 137.97 48.57"/><polygon class="cls-2" points="142.85 60.41 142.85 47.39 149.97 47.39 149.97 48.57 144.16 48.57 144.16 53.24 149.78 53.24 149.78 54.42 144.16 54.42 144.16 59.23 149.97 59.23 149.97 60.41 142.85 60.41"/><path class="cls-2" d="M159,60.64a6.74,6.74,0,1,1-.09-13.48,6.35,6.35,0,0,1,6,3.61h-1.46A4.94,4.94,0,0,0,159,48.36a5.41,5.41,0,0,0-5.48,5.53,5.55,5.55,0,0,0,5.5,5.55c1.9,0,3.15-.72,4.53-2.45H165a6.41,6.41,0,0,1-6,3.65"/><polygon class="cls-2" points="175.55 60.41 175.55 54.3 168.81 54.3 168.81 60.41 167.5 60.41 167.5 47.39 168.81 47.39 168.81 53.11 175.55 53.11 175.55 47.39 176.86 47.39 176.86 60.41 175.55 60.41"/><polygon class="cls-2" points="189.03 60.41 181.28 48.96 181.28 60.41 179.98 60.41 179.98 47.39 181.74 47.39 189.03 58.19 189.03 47.39 190.34 47.39 190.34 60.41 189.03 60.41"/><path class="cls-2" d="M200,60.64a6.74,6.74,0,1,1,6.87-6.73A6.83,6.83,0,0,1,200,60.64m0-12.28a5.54,5.54,0,1,0,5.55,5.56A5.61,5.61,0,0,0,200,48.36"/><polygon class="cls-2" points="209.39 60.41 209.39 47.39 210.69 47.39 210.69 59.23 216.08 59.23 216.08 60.41 209.39 60.41"/><path class="cls-2" d="M223.41,60.64a6.74,6.74,0,1,1,6.87-6.73,6.83,6.83,0,0,1-6.87,6.73m0-12.28A5.54,5.54,0,1,0,229,53.92a5.61,5.61,0,0,0-5.55-5.56"/><path class="cls-2" d="M239.36,60.64a6.84,6.84,0,0,1-7.08-6.77,6.73,6.73,0,0,1,6.9-6.71,6.44,6.44,0,0,1,6.17,3.7h-1.46a5.1,5.1,0,0,0-4.6-2.5,5.54,5.54,0,1,0,0,11.08,5.42,5.42,0,0,0,5.26-3.86H237.3V54.4h8.84a6.72,6.72,0,0,1-6.78,6.24"/><polygon class="cls-2" points="252.28 56.06 252.28 60.41 250.97 60.41 250.97 56.06 246.46 47.39 247.91 47.39 251.61 54.68 255.39 47.39 256.82 47.39 252.28 56.06"/><polygon class="cls-3" points="73.84 0 50.99 20.34 66.17 14.09 73.84 0"/><polygon class="cls-1" points="84.99 16.87 63.14 27.82 53.37 55.47 67.15 31.47 84.99 16.87"/><polygon class="cls-4" points="84.99 22.78 68.88 32.29 65.11 38.78 84.99 22.78"/><polygon class="cls-3" points="38.16 56.38 46.5 56.38 42.33 61.25 38.16 56.38"/><polygon class="cls-3" points="11.15 0 34 20.34 18.82 14.09 11.15 0"/><polygon class="cls-1" points="0 16.87 21.86 27.82 31.63 55.47 17.84 31.47 0 16.87"/><polygon class="cls-4" points="0 22.78 16.11 32.29 19.88 38.78 0 22.78"/></svg>